<svg xmlns="http://www.w3.org/2000/svg" xmlns:xlink="http://www.w3.org/1999/xlink" width="573" height="450" viewBox="0 0 573 450">
    <defs>
        <linearGradient id="a" x1="70.931%" x2="41.365%" y1="67.472%" y2="0%">
            <stop offset="0%" stop-color="#FFF" stop-opacity=".5"/>
            <stop offset="100%" stop-opacity=".5"/>
        </linearGradient>
        <path id="b" d="M230.578 0v135.881H.438V0z"/>
        <path id="d" d="M.102 0L0 37.049 21.898 50 22 12.951.104 0"/>
    </defs>
    <g fill="none" fill-rule="evenodd">
        <path fill="url(#a)" fill-opacity=".15" d="M110.412 330.362l-.688 14.078L249 427l97.956-78.098-128.586-78.797z" transform="translate(226)"/>
        <path fill="#3F9ED7" d="M344 136L227 69v205l115 74z"/>
        <path fill="#3788BA" d="M455 281l-113 68V135l115-65v207c0 1.274-.808 2.74-2 4M234.09 196.297c-.957-.584-2.164.132-2.164 1.288l4 70.872c0 1.037.517 1.999 1.365 2.543l91.198 58.914c.956.613 2.188-.102 2.188-1.27l3-69.758c0-1.057-.538-2.037-1.413-2.573l-98.175-60.016zM234 97c-.789-.378-2 .34-2 1v70c0 1.349.52 2.312 1 3l100 64c.764.39 2-.328 2-1v-74c0-1.118-.54-3.168-1-4L234 97z"/>
        <path fill="#3788BA" d="M301 237c-.993-.21-2.389-.01-3 1l-2 2c-1.52 1.265-3.663 1.549-5 1l-19-12c-1.976-1.036-3.198-2.45-4-4l-4-9c-.288-1.305-1.038-2.177-2-3l-29-18c-.795-.375-2 .336-2 1v72c0 1.266.54 2.24 1 3l102 65c.802.372 2-.34 2-1v-77c0-.599-.28-1.093-1-1l-34-20z"/>
        <g transform="translate(226.65)">
            <mask id="c" fill="#fff">
                <use xlink:href="#b"/>
            </mask>
            <path fill="#2992CF" d="M229.268 71.965c.937-.577 1.31-2.57 1.31-2.57-.383-1.622-2.07-2.999-3.464-3.83L117.734.41a2.761 2.761 0 0 0-2.907.007L1.834 65.831c-1.865 1.156-1.862 3.967.007 5.116l110.993 64.52a2.762 2.762 0 0 0 2.91 0l113.524-63.502z" mask="url(#c)"/>
        </g>
        <g transform="rotate(1 -13378.46 15268.702)">
            <mask id="e" fill="#fff">
                <use xlink:href="#d"/>
            </mask>
            <path fill="#FFF" d="M11.075 6.17c-4.553-2.72-8.246-.533-8.26 4.872l-.015 4.89C1.288 15.03.05 15.753.045 17.56L0 33.874c-.005 1.798 1.226 3.996 2.739 4.9l16.46 9.834c1.52.91 2.751.182 2.755-1.616L22 30.676c.004-1.807-1.218-4-2.739-4.91l.013-4.89c.015-5.404-3.655-11.99-8.2-14.706M5.54 17.57l.014-4.89c.01-3.608 2.479-5.055 5.512-3.243 3.032 1.812 5.48 6.197 5.468 9.803l-.013 4.89-10.98-6.56M2.746 35.515L2.792 19.2l16.46 9.835-.045 16.316-16.46-9.836" mask="url(#e)"/>
        </g>
        <path fill="#0B5B8B" d="M279.133 157.438c-1.728-1.011-3.126-.213-3.133 1.8-.003 1.338.625 2.873 1.553 4.04l-.006 2.321c-.003 1.012.696 2.229 1.556 2.733.858.503 1.553.102 1.557-.91l.006-2.321c.932-.078 1.565-.874 1.57-2.212.005-2.013-1.384-4.445-3.103-5.451"/>
    </g>
</svg>
